<svg width="20" height="20" viewBox="0 0 20 20" fill="none" xmlns="http://www.w3.org/2000/svg">
<path d="M9.16669 10.8337H5.00002C4.76391 10.8337 4.56599 10.7538 4.40627 10.5941C4.24655 10.4344 4.16669 10.2364 4.16669 10.0003C4.16669 9.76421 4.24655 9.5663 4.40627 9.40658C4.56599 9.24685 4.76391 9.16699 5.00002 9.16699H9.16669V5.00033C9.16669 4.76421 9.24655 4.5663 9.40627 4.40658C9.56599 4.24685 9.76391 4.16699 10 4.16699C10.2361 4.16699 10.434 4.24685 10.5938 4.40658C10.7535 4.5663 10.8334 4.76421 10.8334 5.00033V9.16699H15C15.2361 9.16699 15.434 9.24685 15.5938 9.40658C15.7535 9.5663 15.8334 9.76421 15.8334 10.0003C15.8334 10.2364 15.7535 10.4344 15.5938 10.5941C15.434 10.7538 15.2361 10.8337 15 10.8337H10.8334V15.0003C10.8334 15.2364 10.7535 15.4344 10.5938 15.5941C10.434 15.7538 10.2361 15.8337 10 15.8337C9.76391 15.8337 9.56599 15.7538 9.40627 15.5941C9.24655 15.4344 9.16669 15.2364 9.16669 15.0003V10.8337Z" fill="black"/>
</svg>
