<svg width="24" height="24" viewBox="0 0 24 24" fill="none" xmlns="http://www.w3.org/2000/svg">
<path d="M18.9117 14.748L18.913 14.7502C19.2233 15.2594 19.2776 15.8584 19.0721 16.4037C18.8638 16.9566 18.4356 17.3737 17.8839 17.555L17.8839 17.555L17.8812 17.5559C15.9942 18.1881 14.008 18.5 12.02 18.5C10.032 18.5 8.04663 18.1881 6.16104 17.5466L6.16004 17.5463C5.54298 17.3378 5.10192 16.9172 4.92072 16.4114L4.92073 16.4114L4.91929 16.4075C4.72726 15.8851 4.78763 15.3026 5.11862 14.7475C5.11885 14.7471 5.11908 14.7467 5.11931 14.7463L6.12784 13.0788L6.1279 13.0788L6.13189 13.0719C6.26757 12.8394 6.38154 12.5281 6.46124 12.2349C6.54084 11.9422 6.6 11.6169 6.6 11.35V8.82C6.6 6.69904 7.83412 4.85737 9.62269 3.96767L9.76102 3.89886L9.83642 3.76402C10.2693 2.98983 11.0837 2.5 11.99 2.5C12.9106 2.5 13.7039 2.97374 14.1347 3.73603L14.2123 3.87329L14.3546 3.94122C16.1782 4.81178 17.44 6.67082 17.44 8.82V11.35C17.44 11.6169 17.4992 11.9421 17.5786 12.2356C17.6584 12.5303 17.7717 12.8417 17.9052 13.0768L17.905 13.0769L17.9117 13.088L18.9117 14.748Z" stroke="black"/>
<path d="M10.0956 20.6143C10.146 20.6193 10.1966 20.6239 10.2474 20.6282C10.8289 20.6792 11.4233 20.71 12.02 20.71C12.6073 20.71 13.1924 20.6791 13.7645 20.628L13.7645 20.628L13.7674 20.6277C13.8104 20.6237 13.858 20.6197 13.9086 20.6156C13.4474 21.1572 12.7621 21.5 12 21.5C11.3411 21.5 10.6924 21.2319 10.2398 20.7628L10.2311 20.7538L10.222 20.7452C10.1782 20.7042 10.136 20.6604 10.0956 20.6143Z" stroke="black"/>
</svg>
