<svg width="14" height="17" viewBox="0 0 14 17" fill="none" xmlns="http://www.w3.org/2000/svg">
<g id="Bookmark">
<path id="Rectangle 17" d="M0 7C0 5.13872 0 4.20808 0.244717 3.45492C0.739307 1.93273 1.93273 0.739307 3.45492 0.244717C4.20808 0 5.13872 0 7 0C8.86128 0 9.79192 0 10.5451 0.244717C12.0673 0.739307 13.2607 1.93273 13.7553 3.45492C14 4.20808 14 5.13872 14 7V10.9231C14 14.2481 14 15.9106 13.3366 16.4508C12.9696 16.7496 12.4997 16.8919 12.0286 16.8468C11.1769 16.7653 10.2547 15.3821 8.41034 12.6155C7.89336 11.84 7.63488 11.4523 7.29526 11.3474C7.10291 11.2879 6.89709 11.2879 6.70474 11.3474C6.36512 11.4523 6.10664 11.84 5.58966 12.6155C3.7453 15.3821 2.82311 16.7653 1.97145 16.8468C1.50033 16.8919 1.03041 16.7496 0.663425 16.4508C0 15.9106 0 14.2481 0 10.9231V7Z" fill="white"/>
</g>
</svg>
