<svg width="22" height="22" viewBox="0 0 22 22" fill="none" xmlns="http://www.w3.org/2000/svg">
<path d="M10.998 15.4289C11.9913 15.4289 12.8335 15.0835 13.5244 14.3926C14.2153 13.7016 14.5608 12.8595 14.5608 11.8661C14.5608 10.8727 14.2153 10.0306 13.5244 9.33967C12.8335 8.64875 11.9913 8.30329 10.998 8.30329C10.0046 8.30329 9.16242 8.64875 8.47151 9.33967C7.78059 10.0306 7.43513 10.8727 7.43513 11.8661C7.43513 12.8595 7.78059 13.7016 8.47151 14.3926C9.16242 15.0835 10.0046 15.4289 10.998 15.4289ZM10.998 14.1304C10.3586 14.1304 9.82143 13.9128 9.38633 13.4777C8.95124 13.0426 8.7337 12.5054 8.7337 11.8661C8.7337 11.2268 8.95124 10.6896 9.38633 10.2545C9.82143 9.81941 10.3586 9.60186 10.998 9.60186C11.6373 9.60186 12.1745 9.81941 12.6096 10.2545C13.0447 10.6896 13.2622 11.2268 13.2622 11.8661C13.2622 12.5054 13.0447 13.0426 12.6096 13.4777C12.1745 13.9128 11.6373 14.1304 10.998 14.1304ZM4.33844 18.3592C3.90112 18.3592 3.53096 18.2076 3.22795 17.9046C2.92494 17.6016 2.77344 17.2315 2.77344 16.7942L2.77344 6.93808C2.77344 6.50077 2.92494 6.13061 3.22795 5.8276C3.53096 5.52459 3.90112 5.37308 4.33844 5.37308L6.98226 5.37308L8.11439 4.14607C8.25646 3.98957 8.42822 3.86637 8.62968 3.77646C8.83112 3.68656 9.04339 3.6416 9.26647 3.6416L12.7294 3.6416C12.9525 3.6416 13.1648 3.68656 13.3662 3.77646C13.5677 3.86637 13.7395 3.98957 13.8815 4.14607L15.0137 5.37308L17.6575 5.37308C18.0948 5.37308 18.4649 5.52459 18.768 5.8276C19.071 6.13061 19.2225 6.50077 19.2225 6.93808L19.2225 16.7942C19.2225 17.2315 19.071 17.6016 18.768 17.9046C18.4649 18.2076 18.0948 18.3592 17.6575 18.3592H4.33844ZM4.33844 17.0606H17.6575C17.7352 17.0606 17.799 17.0356 17.849 16.9856C17.8989 16.9357 17.9239 16.8719 17.9239 16.7942V6.93808C17.9239 6.86038 17.8989 6.79656 17.849 6.7466C17.799 6.69665 17.7352 6.67167 17.6575 6.67167H14.4343L12.846 4.94019L9.14992 4.94019L7.56163 6.67167L4.33844 6.67167C4.26074 6.67167 4.19691 6.69665 4.14696 6.7466C4.097 6.79656 4.07203 6.86038 4.07203 6.93808L4.07203 16.7942C4.07203 16.8719 4.097 16.9357 4.14696 16.9856C4.19691 17.0356 4.26074 17.0606 4.33844 17.0606Z" fill="black"/>
</svg>
