<svg xmlns="http://www.w3.org/2000/svg" width="24" height="24" viewBox="0 0 24 24" fill="none">
<path d="M5.24255 4.68043L5.24256 4.68037C5.37214 4.09746 5.6966 3.57615 6.16238 3.20247C6.62814 2.82881 7.20738 2.62512 7.8045 2.625C7.80452 2.625 7.80454 2.625 7.80456 2.625H16.1947H16.1948C16.792 2.62495 17.3715 2.82858 17.8374 3.20227C18.3033 3.57594 18.6278 4.09731 18.7574 4.68031C18.7574 4.68033 18.7574 4.68035 18.7574 4.68037L19.2352 6.83131L19.3004 7.125H19.6012H20.25C20.3495 7.125 20.4448 7.16451 20.5152 7.23483C20.5855 7.30516 20.625 7.40054 20.625 7.5C20.625 7.59946 20.5855 7.69484 20.5152 7.76517C20.4448 7.83549 20.3495 7.875 20.25 7.875H19.935H19.4675L19.5689 8.33135L19.8164 9.4451L19.8535 9.61173L20.0034 9.69324C20.4184 9.91877 20.7649 10.2521 21.0063 10.6581C21.2477 11.064 21.3751 11.5276 21.375 12V12V19.5C21.375 19.9973 21.1775 20.4742 20.8258 20.8258C20.4742 21.1775 19.9973 21.375 19.5 21.375H18.75C18.2527 21.375 17.7758 21.1775 17.4242 20.8258C17.0725 20.4742 16.875 19.9973 16.875 19.5V18.75V18.375H16.5H7.5H7.125V18.75V19.5C7.125 19.9973 6.92746 20.4742 6.57583 20.8258C6.22419 21.1775 5.74728 21.375 5.25 21.375H4.5C4.00272 21.375 3.52581 21.1775 3.17417 20.8258C2.82254 20.4742 2.625 19.9973 2.625 19.5V12V12C2.62494 11.5276 2.75233 11.064 2.99372 10.6581C3.23511 10.2521 3.58157 9.91877 3.99656 9.69324L4.14654 9.61173L4.18357 9.4451L4.43107 8.33135L4.53248 7.875H4.065H3.75C3.65054 7.875 3.55516 7.83549 3.48484 7.76516L3.23735 8.01265L3.48484 7.76516C3.41451 7.69484 3.375 7.59946 3.375 7.5C3.375 7.40054 3.41451 7.30516 3.48484 7.23484L3.23735 6.98735L3.48484 7.23484C3.55516 7.16451 3.65054 7.125 3.75 7.125H4.398H4.69875L4.76405 6.83143L5.24255 4.68043ZM18.0256 4.84319L18.0256 4.84312C17.933 4.4266 17.7011 4.05411 17.3682 3.78719C17.0353 3.52029 16.6214 3.37489 16.1947 3.375C16.1947 3.375 16.1947 3.375 16.1946 3.375H7.8045H7.80444C7.3779 3.37507 6.96414 3.52057 6.63144 3.78748C6.29875 4.05439 6.06699 4.42676 5.97444 4.84312L5.97442 4.84319L5.06917 8.91869L4.96782 9.375H5.43525H18.5648H19.0322L18.9308 8.91869L18.0256 4.84319ZM18 18.375H17.625V18.75V19.5C17.625 19.7984 17.7435 20.0845 17.9545 20.2955C18.1655 20.5065 18.4516 20.625 18.75 20.625H19.5C19.7984 20.625 20.0845 20.5065 20.2955 20.2955C20.5065 20.0845 20.625 19.7984 20.625 19.5V18.75V18.375H20.25H18ZM3.75 18.375H3.375V18.75V19.5C3.375 19.7984 3.49353 20.0845 3.70451 20.2955C3.91548 20.5065 4.20163 20.625 4.5 20.625H5.25C5.54837 20.625 5.83452 20.5065 6.04549 20.2955C6.25647 20.0845 6.375 19.7984 6.375 19.5V18.75V18.375H6H3.75ZM3.375 17.25V17.625H3.75H20.25H20.625V17.25V12C20.625 11.5027 20.4275 11.0258 20.0758 10.6742C19.7242 10.3225 19.2473 10.125 18.75 10.125H5.25C4.75272 10.125 4.2758 10.3225 3.92417 10.6742C3.57254 11.0258 3.375 11.5027 3.375 12V17.25ZM9.85984 14.7348C9.93016 14.6645 10.0255 14.625 10.125 14.625H13.875C13.9745 14.625 14.0698 14.6645 14.1402 14.7348C14.2105 14.8052 14.25 14.9005 14.25 15C14.25 15.0995 14.2105 15.1948 14.1402 15.2652C14.0698 15.3355 13.9745 15.375 13.875 15.375H10.125C10.0255 15.375 9.93016 15.3355 9.85984 15.2652C9.78951 15.1948 9.75 15.0995 9.75 15C9.75 14.9005 9.78951 14.8052 9.85984 14.7348ZM7.875 13.125C7.875 13.3239 7.79598 13.5147 7.65533 13.6553C7.51468 13.796 7.32391 13.875 7.125 13.875C6.92609 13.875 6.73532 13.796 6.59467 13.6553C6.45402 13.5147 6.375 13.3239 6.375 13.125C6.375 12.9261 6.45402 12.7353 6.59467 12.5947C6.73532 12.454 6.92609 12.375 7.125 12.375C7.32391 12.375 7.51468 12.454 7.65533 12.5947C7.79598 12.7353 7.875 12.9261 7.875 13.125ZM17.4053 13.6553C17.2647 13.796 17.0739 13.875 16.875 13.875C16.6761 13.875 16.4853 13.796 16.3447 13.6553C16.204 13.5147 16.125 13.3239 16.125 13.125C16.125 12.9261 16.204 12.7353 16.3447 12.5947C16.4853 12.454 16.6761 12.375 16.875 12.375C17.0739 12.375 17.2647 12.454 17.4053 12.5947C17.546 12.7353 17.625 12.9261 17.625 13.125C17.625 13.3239 17.546 13.5147 17.4053 13.6553Z" fill="black" stroke="#007e10" stroke-width="0.75"/>
</svg>