<svg width="20" height="19" viewBox="0 0 20 19" fill="none" xmlns="http://www.w3.org/2000/svg">
<g id="menu">
<path id="Rectangle 8" d="M12 4C12 3.53563 12 3.30344 12.022 3.10812C12.2048 1.48545 13.4855 0.204838 15.1081 0.0220073C15.3034 0 15.5356 0 16 0C16.4644 0 16.6966 0 16.8919 0.0220073C18.5145 0.204838 19.7952 1.48545 19.978 3.10812C20 3.30344 20 3.53563 20 4C20 4.46437 20 4.69656 19.978 4.89188C19.7952 6.51455 18.5145 7.79516 16.8919 7.97799C16.6966 8 16.4644 8 16 8C15.5356 8 15.3034 8 15.1081 7.97799C13.4855 7.79516 12.2048 6.51455 12.022 4.89188C12 4.69656 12 4.46437 12 4Z" fill="white"/>
<path id="Rectangle 10" d="M12 15C12 14.5356 12 14.3034 12.022 14.1081C12.2048 12.4855 13.4855 11.2048 15.1081 11.022C15.3034 11 15.5356 11 16 11C16.4644 11 16.6966 11 16.8919 11.022C18.5145 11.2048 19.7952 12.4855 19.978 14.1081C20 14.3034 20 14.5356 20 15C20 15.4644 20 15.6966 19.978 15.8919C19.7952 17.5145 18.5145 18.7952 16.8919 18.978C16.6966 19 16.4644 19 16 19C15.5356 19 15.3034 19 15.1081 18.978C13.4855 18.7952 12.2048 17.5145 12.022 15.8919C12 15.6966 12 15.4644 12 15Z" fill="white"/>
<path id="Rectangle 9" d="M0 4C0 3.53563 0 3.30344 0.0220073 3.10812C0.204838 1.48545 1.48545 0.204838 3.10812 0.0220073C3.30344 0 3.53563 0 4 0C4.46437 0 4.69656 0 4.89188 0.0220073C6.51455 0.204838 7.79516 1.48545 7.97799 3.10812C8 3.30344 8 3.53563 8 4C8 4.46437 8 4.69656 7.97799 4.89188C7.79516 6.51455 6.51455 7.79516 4.89188 7.97799C4.69656 8 4.46437 8 4 8C3.53563 8 3.30344 8 3.10812 7.97799C1.48545 7.79516 0.204838 6.51455 0.0220073 4.89188C0 4.69656 0 4.46437 0 4Z" fill="white"/>
<path id="Rectangle 11" d="M0 15C0 14.5356 0 14.3034 0.0220073 14.1081C0.204838 12.4855 1.48545 11.2048 3.10812 11.022C3.30344 11 3.53563 11 4 11C4.46437 11 4.69656 11 4.89188 11.022C6.51455 11.2048 7.79516 12.4855 7.97799 14.1081C8 14.3034 8 14.5356 8 15C8 15.4644 8 15.6966 7.97799 15.8919C7.79516 17.5145 6.51455 18.7952 4.89188 18.978C4.69656 19 4.46437 19 4 19C3.53563 19 3.30344 19 3.10812 18.978C1.48545 18.7952 0.204838 17.5145 0.0220073 15.8919C0 15.6966 0 15.4644 0 15Z" fill="white"/>
</g>
</svg>
