<svg width="24" height="24" viewBox="0 0 24 24" fill="none" xmlns="http://www.w3.org/2000/svg">
<path fill-rule="evenodd" clip-rule="evenodd" d="M12 3C16.9725 3 21 7.0275 21 12C21 16.9725 16.9725 21 12 21C7.0275 21 3 16.9725 3 12C3 7.0275 7.0275 3 12 3ZM15.8363 8.54625L10.47 13.7325L9.0525 12.2025C8.77125 11.9663 8.36625 11.9438 8.07375 12.1575C7.78125 12.36 7.7025 12.7537 7.87125 13.0575L9.55875 15.8138C9.7275 16.0613 10.02 16.2188 10.335 16.2188C10.65 16.2188 10.9312 16.0613 11.1 15.8138C11.37 15.465 16.5225 9.31125 16.5225 9.31125C17.1975 8.63625 16.3763 8.0175 15.8475 8.54625H15.8363Z" fill="#04B155"/>
</svg>
