<svg width="22" height="20" viewBox="0 0 22 20" fill="none" xmlns="http://www.w3.org/2000/svg">
<g id="Home-2">
<path id="Line 15 (Stroke)" fill-rule="evenodd" clip-rule="evenodd" d="M11.6048 0.52481C11.9395 0.813139 11.9395 1.28061 11.6048 1.56894L1.81711 9.99849C1.48233 10.2868 0.939545 10.2868 0.604763 9.99849C0.269982 9.71017 0.269982 9.24269 0.604763 8.95437L10.3924 0.52481C10.7272 0.236482 11.27 0.236482 11.6048 0.52481Z" fill="white"/>
<path id="Line 16 (Stroke)" fill-rule="evenodd" clip-rule="evenodd" d="M10.3952 0.52481C10.0605 0.813139 10.0605 1.28061 10.3952 1.56894L20.1829 9.99849C20.5177 10.2868 21.0605 10.2868 21.3952 9.99849C21.73 9.71016 21.73 9.24269 21.3952 8.95436L11.6076 0.52481C11.2728 0.236482 10.73 0.236482 10.3952 0.52481Z" fill="white"/>
<path id="Subtract" fill-rule="evenodd" clip-rule="evenodd" d="M11.8015 20H10.2003C7.2003 20 5.70032 20 4.64886 19.2361C4.30928 18.9893 4.01065 18.6907 3.76393 18.3511C3 17.2997 3 15.7998 3 12.8V11.427C3 9.93268 3 9.18552 3.24996 8.51205C3.33245 8.28978 3.43455 8.07529 3.55503 7.8711C3.9201 7.25242 4.49998 6.78127 5.65973 5.83897L11 1.5L16.3403 5.83897C17.5 6.78127 18.0799 7.25242 18.445 7.8711C18.5655 8.07529 18.6675 8.28978 18.75 8.51205C19 9.18552 19 9.93268 19 11.427V12.8C19 15.7998 19 17.2997 18.2361 18.3511C17.9893 18.6907 17.6907 18.9893 17.3511 19.2361C16.2997 20 14.8003 20 11.8015 20ZM8.7 15.4421C8.3134 15.4421 8 15.7555 8 16.1421C8 16.5287 8.3134 16.8421 8.7 16.8421H12.8C13.1866 16.8421 13.5 16.5287 13.5 16.1421C13.5 15.7555 13.1866 15.4421 12.8 15.4421H8.7Z" fill="white"/>
</g>
</svg>
