<svg width="24" height="25" viewBox="0 0 24 25" fill="none" xmlns="http://www.w3.org/2000/svg">
<path d="M18.0014 7.75288C17.8911 7.68723 17.7555 7.68266 17.6412 7.7407C17.5271 7.79888 17.4499 7.91162 17.4362 8.04012C17.4227 8.16509 17.4016 8.29001 17.3752 8.42108C16.6375 11.8062 15.156 13.4526 12.8449 13.4526H9.45394C9.27514 13.453 9.1212 13.5803 9.08546 13.7574L7.95514 19.1143L7.7532 20.4781C7.6371 21.0983 8.0402 21.6962 8.65353 21.8136C8.72118 21.8265 8.78981 21.8332 8.85865 21.8335H11.1268C11.6467 21.8351 12.0999 21.4764 12.2232 20.9657L13.1395 17.2621H15.1055C17.4257 17.2621 19.0292 15.3917 19.6207 11.9952C20.0112 10.3778 19.3652 8.68562 18.0014 7.75288Z" fill="#03A9F4"/>
<path d="M17.4359 4.79084C16.6813 3.93695 15.5983 3.44331 14.4571 3.43313H8.13292C7.18647 3.42806 6.3807 4.11881 6.24332 5.05292L4.27961 18.1203C4.18555 18.7445 4.61651 19.3265 5.24224 19.4204C5.29902 19.4289 5.35641 19.4331 5.41384 19.4331H8.34681C8.52804 19.4328 8.68407 19.3055 8.7203 19.1284L9.80108 14.0998H12.9326C15.6502 14.0998 17.4459 12.2049 18.2708 8.4617C18.304 8.31248 18.3294 8.1617 18.3472 8.00987C18.5386 6.85506 18.2046 5.67516 17.4359 4.79084Z" fill="#283593"/>
</svg>
