<svg width="17" height="19" viewBox="0 0 17 19" fill="none" xmlns="http://www.w3.org/2000/svg">
<g id="Profile">
<g id="Vector">
<path d="M1.40403 14.3222C1.44068 13.9879 1.45901 13.8208 1.48196 13.7015C1.76052 12.2543 2.93111 11.2799 4.40491 11.2686C4.52634 11.2677 4.71595 11.2816 5.09516 11.3095C6.27296 11.3959 7.59969 11.4667 8.7861 11.4667C10.0244 11.4667 11.3976 11.3896 12.5914 11.298C12.9571 11.27 13.1399 11.256 13.2588 11.2563C14.6551 11.2601 15.7831 12.1264 16.147 13.4745C16.178 13.5893 16.2076 13.748 16.2668 14.0653C16.3321 14.4153 16.3647 14.5902 16.3774 14.7324C16.5246 16.3759 15.3169 17.8298 13.6742 17.9865C13.5321 18 13.3541 18 12.9982 18L4.70058 18C4.37668 18 4.21474 18 4.08232 17.9882C2.51066 17.8487 1.31572 16.5155 1.34832 14.938C1.35106 14.8051 1.36872 14.6441 1.40403 14.3222Z" fill="white"/>
<path fill-rule="evenodd" clip-rule="evenodd" d="M13.2575 11.7563C13.1639 11.756 13.008 11.7676 12.6296 11.7966C11.4299 11.8885 10.0425 11.9667 8.78609 11.9667C7.58231 11.9667 6.24199 11.895 5.05855 11.8081C4.66622 11.7793 4.5042 11.7679 4.40873 11.7686C3.17319 11.7781 2.20647 12.5827 1.97294 13.7961C1.95485 13.89 1.93898 14.0307 1.90104 14.3767C1.86451 14.7097 1.85037 14.8433 1.8482 14.9483C1.82104 16.2629 2.81682 17.3739 4.12654 17.4902C4.23123 17.4995 4.36552 17.5 4.70057 17.5L12.9982 17.5C13.3665 17.5 13.5145 17.4994 13.6267 17.4887C14.9956 17.3582 16.0021 16.1466 15.8794 14.777C15.8694 14.6647 15.8428 14.5191 15.7753 14.157C15.714 13.8286 15.6887 13.6953 15.6643 13.6048C15.3592 12.4744 14.4283 11.7595 13.2575 11.7563ZM12.5911 10.7966C12.9213 10.7712 13.1211 10.7559 13.2602 10.7563C14.882 10.7607 16.2071 11.7785 16.6297 13.3442C16.666 13.4784 16.6988 13.6546 16.7524 13.942L16.7646 14.0073C16.8239 14.3252 16.8605 14.5216 16.8754 14.6878C17.0472 16.6052 15.6381 18.3014 13.7216 18.4842C13.5556 18.5 13.3558 18.5 13.0325 18.5L4.66966 18.5C4.3752 18.5 4.19288 18.5 4.03808 18.4863C2.20448 18.3235 0.810384 16.7681 0.848416 14.9277C0.851627 14.7723 0.871512 14.5911 0.903627 14.2984C0.904737 14.2883 0.905861 14.278 0.906999 14.2677C0.908243 14.2563 0.909469 14.2451 0.910678 14.2341C0.943844 13.9315 0.964131 13.7465 0.990966 13.607C1.31456 11.9258 2.68902 10.7818 4.40107 10.7687C4.54308 10.7676 4.74987 10.7828 5.09217 10.8079L5.13174 10.8108C6.30391 10.8968 7.61704 10.9667 8.78609 10.9667C10.0062 10.9667 11.3652 10.8906 12.5531 10.7995L12.5911 10.7966Z" fill="white"/>
<path d="M5.00068 4C5.00068 1.79086 6.79154 0 9.00068 0C11.2098 0 13.0007 1.79086 13.0007 4V4.57143C13.0007 6.46498 11.4657 8 9.57211 8H8.42925C6.5357 8 5.00068 6.46498 5.00068 4.57143V4Z" fill="white"/>
</g>
</g>
</svg>
