<svg xmlns="http://www.w3.org/2000/svg" width="32" height="32" viewBox="0 0 32 32" fill="none">
<path fill-rule="evenodd" clip-rule="evenodd" d="M16 4C22.63 4 28 9.37 28 16C28 22.63 22.63 28 16 28C9.37 28 4 22.63 4 16C4 9.37 9.37 4 16 4ZM21.115 11.395L13.96 18.31L12.07 16.27C11.695 15.955 11.155 15.925 10.765 16.21C10.375 16.48 10.27 17.005 10.495 17.41L12.745 21.085C12.97 21.415 13.36 21.625 13.78 21.625C14.2 21.625 14.575 21.415 14.8 21.085C15.16 20.62 22.03 12.415 22.03 12.415C22.93 11.515 21.835 10.69 21.13 11.395H21.115Z" fill="#007e10"/>
</svg>